<svg xmlns="http://www.w3.org/2000/svg" width="1365.333" height="1365.333" preserveAspectRatio="xMidYMid meet" version="1.0" viewBox="0 0 1024 1024"><metadata>Created by potrace 1.14, written by Peter Selinger 2001-2017</metadata><g fill="#000" stroke="none"><path d="M3660 9838 c-12 -35 -47 -130 -77 -213 -30 -82 -66 -179 -78 -215 -41 -112 -79 -215 -81 -219 -2 -3 -284 228 -304 249 -3 3 -59 50 -125 105 -66 54 -124 105 -128 112 -11 18 -25 16 -31 -4 -5 -17 -30 -153 -42 -231 -3 -20 -9 -55 -14 -77 -5 -22 -14 -69 -19 -105 -6 -36 -13 -75 -15 -86 -2 -12 -7 -39 -10 -60 -4 -22 -8 -46 -11 -54 -2 -8 -6 -37 -10 -65 -3 -27 -8 -52 -11 -55 -3 -2 -20 4 -37 14 -18 11 -50 29 -72 41 -22 12 -146 84 -275 160 -129 75 -247 143 -262 151 l-28 14 0 -1974 0 -1975 -101 -278 c-55 -153 -156 -431 -224 -619 -68 -187 -128 -351 -134 -365 -5 -13 -40 -107 -76 -209 -36 -102 -72 -201 -79 -220 -8 -19 -25 -66 -39 -105 -14 -38 -50 -137 -80 -220 -30 -82 -77 -213 -105 -290 -28 -77 -151 -414 -272 -750 -122 -335 -233 -641 -246 -679 l-24 -68 23 5 c12 3 90 17 172 32 83 14 161 27 174 30 31 6 258 46 296 52 17 2 47 8 69 13 l38 8 -6 -36 c-3 -20 -8 -50 -11 -67 -3 -16 -7 -43 -10 -60 -3 -16 -7 -41 -10 -55 -4 -21 -15 -80 -31 -175 -9 -53 -24 -143 -29 -165 -2 -13 -7 -40 -10 -60 -3 -20 -8 -47 -10 -60 -16 -77 -17 -93 -3 -88 7 3 110 40 228 83 118 42 275 99 348 126 73 27 136 49 140 49 5 0 8 -169 7 -376 0 -206 2 -379 5 -384 4 -7 336 174 420 229 8 6 42 25 75 44 112 64 130 74 295 169 91 53 181 105 200 115 19 11 121 69 225 130 105 60 327 189 495 285 168 97 375 216 460 265 85 49 175 101 200 115 25 14 176 101 335 193 160 92 306 176 325 187 19 11 51 29 70 40 163 95 358 206 374 212 11 3 35 9 55 12 20 2 56 9 81 14 25 5 137 25 250 45 179 30 262 45 280 50 3 0 26 4 51 8 76 13 100 17 189 33 113 21 116 22 185 33 33 6 71 12 85 15 26 5 119 21 180 31 52 9 251 44 280 50 14 3 41 8 60 11 49 7 64 10 250 43 91 17 181 33 200 36 19 3 46 8 60 10 59 12 69 14 175 31 38 6 640 113 692 123 29 6 74 13 100 17 26 3 50 8 53 9 3 2 23 6 45 9 22 4 114 19 205 35 91 16 221 39 290 51 69 12 127 24 128 25 3 3 -166 209 -275 335 -88 102 -203 243 -203 249 0 3 33 18 73 32 289 102 647 235 644 240 -1 4 -47 44 -102 90 -55 46 -102 86 -105 89 -3 3 -30 25 -60 50 -30 25 -57 47 -60 50 -3 4 -62 54 -133 112 -70 59 -124 109 -120 111 5 3 127 73 273 157 146 84 281 162 300 173 19 11 47 27 63 34 15 8 27 18 27 23 0 4 -109 71 -242 148 -134 77 -353 204 -488 282 -135 79 -265 154 -290 168 -25 13 -49 28 -55 32 -5 4 -30 19 -55 32 -25 14 -171 99 -325 188 -154 90 -300 174 -325 188 -25 14 -61 35 -80 47 -19 12 -42 25 -50 28 -8 4 -28 16 -45 26 -16 10 -142 84 -280 163 -137 80 -300 174 -361 210 -61 36 -117 68 -125 72 -8 4 -23 12 -34 19 -36 21 -175 102 -395 230 -320 185 -333 193 -360 229 -14 18 -43 53 -65 78 -22 26 -49 58 -60 71 -64 78 -321 385 -325 389 -4 3 -51 59 -105 125 -55 66 -102 122 -105 125 -3 3 -63 75 -135 160 -71 85 -132 157 -135 160 -3 3 -25 30 -50 60 -48 59 -408 489 -444 530 -12 14 -66 79 -121 145 -55 66 -102 122 -105 125 -3 3 -41 48 -84 100 -102 123 -159 191 -171 204 -6 6 -55 65 -110 131 -55 66 -110 131 -122 145 -45 53 -259 308 -316 378 -33 39 -63 72 -67 72 -4 0 -17 -28 -30 -62z m227 -2304 c186 -108 381 -221 433 -252 52 -30 109 -63 125 -72 17 -10 73 -42 125 -72 52 -30 114 -66 137 -81 24 -15 45 -27 47 -27 3 0 40 -21 83 -46 186 -109 304 -178 352 -205 361 -204 562 -328 606 -375 6 -5 49 -43 98 -83 48 -41 91 -79 95 -86 4 -7 30 -39 58 -71 29 -32 87 -102 130 -154 43 -52 83 -100 89 -106 5 -6 28 -33 50 -60 22 -26 57 -68 79 -93 21 -25 45 -55 55 -66 56 -68 188 -225 210 -250 14 -16 114 -136 222 -265 108 -129 205 -245 215 -257 11 -12 26 -30 34 -40 35 -43 215 -258 220 -263 3 -3 51 -59 105 -125 55 -66 110 -131 122 -145 13 -14 23 -27 23 -30 0 -3 -17 -14 -38 -26 -20 -11 -113 -65 -207 -119 -93 -54 -188 -108 -210 -120 -22 -12 -75 -43 -118 -69 -43 -25 -80 -46 -81 -46 -3 0 -257 -146 -296 -170 -8 -5 -64 -37 -124 -72 -60 -35 -130 -75 -155 -90 -25 -15 -62 -35 -81 -46 -19 -11 -211 -121 -427 -245 -215 -124 -404 -232 -421 -241 -45 -23 -299 -114 -335 -120 -18 -3 -57 -10 -87 -16 -30 -6 -71 -13 -90 -16 -19 -3 -69 -11 -110 -19 -41 -8 -93 -17 -115 -21 -22 -3 -85 -14 -140 -24 -55 -10 -113 -21 -130 -24 -16 -2 -68 -11 -115 -20 -142 -25 -822 -144 -864 -150 -21 -4 -41 -8 -45 -10 -3 -2 -27 -7 -53 -10 -25 -4 -97 -15 -160 -27 -62 -11 -124 -22 -138 -24 -14 -3 -36 -7 -50 -10 -34 -6 -78 -14 -120 -21 -19 -3 -84 -14 -144 -25 -59 -11 -110 -18 -113 -15 -3 3 -5 577 -4 1276 1 1058 4 1284 16 1348 16 86 22 119 30 177 12 80 29 134 101 330 20 55 45 125 56 155 11 30 147 406 303 835 296 816 320 881 366 1009 16 43 29 80 29 82 0 13 53 -15 357 -192z" transform="translate(0.000000,1024.000000) scale(0.100000,-0.100000)"/></g></svg>