<?xml version="1.0" encoding="UTF-8" standalone="no"?>
<!-- Created with Inkscape (http://www.inkscape.org/) -->

<svg
   width="32"
   height="21"
   viewBox="0 0 8.4666667 5.5562499"
   version="1.1"
   id="svg1"
   inkscape:version="1.3.2 (091e20e, 2023-11-25)"
   sodipodi:docname="XR.svg"
   xmlns:inkscape="http://www.inkscape.org/namespaces/inkscape"
   xmlns:sodipodi="http://sodipodi.sourceforge.net/DTD/sodipodi-0.dtd"
   xmlns="http://www.w3.org/2000/svg"
   xmlns:svg="http://www.w3.org/2000/svg">
  <sodipodi:namedview
     id="namedview1"
     pagecolor="#ffffff"
     bordercolor="#666666"
     borderopacity="1.0"
     inkscape:showpageshadow="2"
     inkscape:pageopacity="0.0"
     inkscape:pagecheckerboard="0"
     inkscape:deskcolor="#d1d1d1"
     inkscape:document-units="mm"
     inkscape:zoom="26.875"
     inkscape:cx="15.106977"
     inkscape:cy="10.511628"
     inkscape:window-width="1472"
     inkscape:window-height="838"
     inkscape:window-x="0"
     inkscape:window-y="38"
     inkscape:window-maximized="0"
     inkscape:current-layer="layer1" />
  <defs
     id="defs1" />
  <g
     inkscape:label="Ebene 1"
     inkscape:groupmode="layer"
     id="layer1"
     transform="translate(-149.225,-64.822917)">
    <path
       d="m 157.1474,65.33665 c -0.20175,-0.200642 -0.48996,-0.315294 -0.74935,-0.315294 h -5.99471 c -0.28819,0 -0.48994,0.114659 -0.69169,0.315294 -0.20174,0.17198 -0.28821,0.45861 -0.28821,0.71658 v 3.066962 c 0,0.286632 0.0865,0.5446 0.25939,0.745244 0.20175,0.200641 0.43232,0.315294 0.72051,0.315294 h 1.44104 c 0.20175,0 0.37467,-0.05733 0.51877,-0.143315 0.17292,-0.08599 0.28821,-0.229308 0.37467,-0.401285 l 0.43231,-0.745244 c 0.0576,-0.11466 0,-0.143315 0.28821,-0.143315 v 0 h -0.0576 v 0 c 0.0865,0 0.20175,0.02867 0.23057,0.143315 l 0.40349,0.745244 c 0.0865,0.171977 0.23056,0.315295 0.37467,0.401285 0.17293,0.08598 0.34585,0.143315 0.51877,0.143315 h 1.44104 c 0.2882,0 0.57642,-0.11466 0.77816,-0.315294 0.20174,-0.200644 0.34585,-0.458612 0.34585,-0.745244 V 66.05323 c 0,-0.25797 -0.14411,-0.5446 -0.34585,-0.71658 z m -5.59122,3.066962 c -0.46114,0 -0.80699,-0.372621 -0.80699,-0.80257 0,-0.458612 0.37468,-0.802569 0.80699,-0.802569 0.46113,0 0.80697,0.372621 0.80697,0.802569 0,0.429949 -0.37467,0.80257 -0.80697,0.80257 z m 3.66022,0 c -0.46113,0 -0.80697,-0.372621 -0.80697,-0.80257 0,-0.458612 0.37466,-0.802569 0.80697,-0.802569 0.46113,0 0.83581,0.343957 0.83581,0.802569 0,0.429949 -0.37468,0.80257 -0.83581,0.80257 z"
       id="path1"
       style="fill:#cdcdcd;fill-opacity:1;stroke:#000000;stroke-width:0.132292;stroke-dasharray:none;stroke-opacity:1" />
  </g>
</svg>
