<svg xmlns="http://www.w3.org/2000/svg" id="svg1" width="32" height="18" version="1.1" viewBox="0 0 8.467 4.762"><style>@keyframes fill{0%{fill:#ffe32d}50%{fill:#ff9f2e}}</style><path id="layer1" d="M151.606 66.08a.99.99 0 0 1 .992.984.997.997 0 0 1-.992.984.997.997 0 0 1-.992-.984.99.99 0 0 1 .992-.984zm3.704 0c.553 0 .993.45.993.992 0 .541-.451.992-.993.992-.54 0-.992-.45-.992-.992 0-.541.451-.992.992-.992zm-5.041 3.307h2.348l.54-.96a.34.34 0 0 1 .306-.178c.127 0 .244.062.307.177l.54.961h2.348a.83.83 0 0 0 .835-.825l-.01-2.716a.833.833 0 0 0-.835-.825h-6.389a.83.83 0 0 0-.836.825l.01 2.706c.002.459.37.835.836.835z" transform="translate(-149.225 -64.823)" style="animation:fill 12s alternate infinite linear;fill:#cdcdcd;fill-opacity:1;stroke:#000;stroke-width:.132292;stroke-dasharray:none;stroke-opacity:1"/></svg>