<?xml version="1.0" encoding="UTF-8" standalone="no"?>
<!-- Created with Inkscape (http://www.inkscape.org/) -->

<svg
   width="32"
   height="19.107"
   viewBox="0 0 8.4666665 5.0553941"
   version="1.1"
   id="svg1"
   inkscape:version="1.3.2 (091e20e, 2023-11-25)"
   sodipodi:docname="XR.svg"
   xmlns:inkscape="http://www.inkscape.org/namespaces/inkscape"
   xmlns:sodipodi="http://sodipodi.sourceforge.net/DTD/sodipodi-0.dtd"
   xmlns="http://www.w3.org/2000/svg"
   xmlns:svg="http://www.w3.org/2000/svg">
  <sodipodi:namedview
     id="namedview1"
     pagecolor="#ffffff"
     bordercolor="#666666"
     borderopacity="1.0"
     inkscape:showpageshadow="2"
     inkscape:pageopacity="0.0"
     inkscape:pagecheckerboard="true"
     inkscape:deskcolor="#d1d1d1"
     inkscape:document-units="mm"
     inkscape:zoom="24.766684"
     inkscape:cx="14.99999"
     inkscape:cy="11.063249"
     inkscape:window-width="1472"
     inkscape:window-height="839"
     inkscape:window-x="0"
     inkscape:window-y="38"
     inkscape:window-maximized="1"
     inkscape:current-layer="layer1" />
  <defs
     id="defs1" />
  <g
     inkscape:label="Ebene 1"
     inkscape:groupmode="layer"
     id="layer1"
     transform="translate(-111.65417,-88.237645)">
    <path
       d="m 119.03959,89.081541 c -0.85277,-0.559928 -2.4328,-0.562582 -3.02742,-0.564351 -0.0472,0 -0.0881,0 -0.12017,0 -0.0917,-0.0018 -2.24408,-0.03362 -3.15115,0.563467 -0.0427,0.02653 -1.05216,0.666076 -0.77354,2.218484 0.0801,0.444051 0.27416,0.840335 0.56257,1.144625 0.21186,0.223795 0.45309,0.381245 0.71747,0.468817 0.0267,0.0097 0.14598,0.05219 0.32402,0.07962 0.097,0.01505 0.19494,0.0221 0.29286,0.0221 0.42905,0 0.859,-0.13976 1.2115,-0.399819 l 0.23856,-0.176028 c 0.10237,-0.07519 0.21186,-0.142415 0.32847,-0.20168 0.1531,-0.07785 0.33648,-0.07785 0.49314,0.0017 0.11394,0.0575 0.22254,0.124722 0.32491,0.199911 l 0.23856,0.176028 c 0.43351,0.319326 0.98184,0.457317 1.50436,0.377708 0.17803,-0.02742 0.29731,-0.06988 0.32402,-0.07962 0.26438,-0.08758 0.50561,-0.245022 0.71746,-0.468817 0.28842,-0.304291 0.48336,-0.700575 0.56258,-1.144625 0.27417,-1.52941 -0.70144,-2.172487 -0.77087,-2.216716 z m -1.09756,0.625387 c -0.32402,-0.03273 -0.778,-0.0743 -1.28717,-0.104379 -0.56525,-0.0345 -1.13316,-0.0345 -1.69841,0 -0.51006,0.03095 -0.96315,0.07165 -1.28717,0.104379 -0.12729,0.01327 -0.17447,-0.160106 -0.0588,-0.214065 0.93644,-0.438743 2.19602,-0.429897 2.19602,-0.429897 0,0 1.25956,-0.0088 2.19601,0.429897 0.11572,0.05396 0.0685,0.227333 -0.0587,0.214065 z"
       id="path1"
       style="fill:#ffffff;fill-opacity:1;stroke-width:0.13229167;stroke:#000000;stroke-opacity:1;stroke-dasharray:none" />
  </g>
</svg>
