<?xml version="1.0" encoding="UTF-8" standalone="no"?>
<!-- Created with Inkscape (http://www.inkscape.org/) -->

<svg
   width="32"
   height="18"
   viewBox="0 0 8.4666667 4.7624999"
   version="1.1"
   id="svg1"
   inkscape:version="1.3.2 (091e20e, 2023-11-25)"
   sodipodi:docname="XR.svg"
   xmlns:inkscape="http://www.inkscape.org/namespaces/inkscape"
   xmlns:sodipodi="http://sodipodi.sourceforge.net/DTD/sodipodi-0.dtd"
   xmlns="http://www.w3.org/2000/svg"
   xmlns:svg="http://www.w3.org/2000/svg">
  <sodipodi:namedview
     id="namedview1"
     pagecolor="#ffffff"
     bordercolor="#666666"
     borderopacity="1.0"
     inkscape:showpageshadow="2"
     inkscape:pageopacity="0.0"
     inkscape:pagecheckerboard="0"
     inkscape:deskcolor="#d1d1d1"
     inkscape:document-units="mm"
     inkscape:zoom="26.875"
     inkscape:cx="16.576744"
     inkscape:cy="10.065116"
     inkscape:window-width="1472"
     inkscape:window-height="838"
     inkscape:window-x="35"
     inkscape:window-y="50"
     inkscape:window-maximized="0"
     inkscape:current-layer="layer1"
     showgrid="true"
     showguides="true">
    <sodipodi:guide
       position="4.321938,0.79373677"
       orientation="0,1"
       id="guide2"
       inkscape:locked="false"
       inkscape:label=""
       inkscape:color="rgb(0,134,229)" />
    <inkscape:grid
       id="grid4"
       units="px"
       originx="0"
       originy="0"
       spacingx="0.13229167"
       spacingy="0.13229167"
       empcolor="#0099e5"
       empopacity="0.30196078"
       color="#0099e5"
       opacity="0.14901961"
       empspacing="5"
       dotted="false"
       gridanglex="30"
       gridanglez="30"
       visible="true" />
  </sodipodi:namedview>
  <style>
#path3 {
  fill: #FF0000;
  animation: fill 12s infinite linear;
}

@keyframes fill {
   0% {
      fill: #ff0000;
   }
   8.3333333333% {
      fill: #ff8000;
   }
   16.6666666667% {
      fill: #ffff00;
   }
   25% {
      fill: #80ff00;
   }
   33.3333333333% {
      fill: #00ff00;
   }
   41.6666666667% {
      fill: #00ff80;
   }
   50% {
      fill: #00ffff;
   }
   58.3333333333% {
      fill: #0080ff;
   }
   66.6666666667% {
      fill: #0000ff;
   }
   75% {
      fill: #8000ff;
   }
   83.3333333333% {
      fill: #ff00ff;
   }
   91.6666666667% {
      fill: #ff0080;
   }
   100% {
      fill: #ff0000;
   }
}
  </style>
  <defs
     id="defs1" />
  <g
     inkscape:label="Ebene 1"
     inkscape:groupmode="layer"
     id="layer1"
     transform="translate(-149.225,-64.822917)">
    <path
       id="path3"
       style="fill:#cdcdcd;fill-opacity:1;stroke:#000000;stroke-width:0.132292;stroke-dasharray:none;stroke-opacity:1"
       d="m 151.60625,66.079688 c 0.55247,0 0.99218,0.447403 0.99218,0.984287 0,0.536884 -0.451,0.984287 -0.99218,0.984287 -0.5412,0 -0.99219,-0.447403 -0.99219,-0.984287 0,-0.536884 0.43972,-0.984287 0.99219,-0.984287 z m 3.70417,0 c 0.55246,0 0.99219,0.450994 0.99219,0.992188 0,0.541192 -0.45099,0.992187 -0.99219,0.992187 -0.54119,0 -0.99219,-0.450995 -0.99219,-0.992187 0,-0.541194 0.451,-0.992188 0.99219,-0.992188 z m -5.04141,3.307291 h 2.34814 l 0.53942,-0.96074 c 0.0635,-0.114871 0.17983,-0.177528 0.30676,-0.177528 0.12691,0 0.24326,0.06265 0.30673,0.177528 l 0.53943,0.96074 h 2.34813 c 0.46539,0 0.83717,-0.375945 0.8356,-0.824984 l -0.01,-2.715656 c -0.002,-0.459481 -0.38078,-0.824984 -0.83559,-0.824984 h -6.38861 c -0.46539,0 -0.83716,0.375945 -0.83559,0.824984 l 0.01,2.705215 c 0.002,0.45948 0.3702,0.835425 0.83558,0.835425 z"
       sodipodi:nodetypes="sssssssssssccsccsccssccs" />
  </g>
</svg>
