<svg xmlns="http://www.w3.org/2000/svg" height="24px" viewBox="0 -960 960 960" width="24px" fill="#e8eaed"><path d="m480-800c-97.333 0-186.02 27.151-266.02 81.484-80 54.333-137.98 127.18-173.98 218.52 36 91.333 93.988 164.18 173.98 218.52 80 54.333 168.68 81.484 266.02 81.484s186.02-27.151 266.02-81.484 137.98-127.18 173.98-218.52c-36-91.333-93.988-164.18-173.98-218.52-80-54.333-168.68-81.484-266.02-81.484zm0 80c73.702 0 141.46 19.142 203.36 57.109h0.15624v0.07812c1.3198 0.8103 2.67 1.5162 3.9844 2.3438 43.589 27.445 79.898 61.668 109.3 102.34h-633.59c29.396-40.68 65.705-74.903 109.3-102.34 63-39.667 132.17-59.531 207.5-59.531zm69.062 52.891c2.9454 1.4119 8.8281 4.2188 8.8281 4.2188-11.781-5.6475-11.774-5.6306-8.8281-4.2188zm-410.94 186.02h162.81c3.9278 41.876 21.071 78.102 51.562 108.59 35 35 77.5 52.5 127.5 52.5s92.5-17.5 127.5-52.5c30.492-30.492 47.713-66.718 51.641-108.59h162.73c-32.712 58.458-77.422 105.71-134.38 141.56-63 39.667-132.17 59.531-207.5 59.531s-144.5-19.865-207.5-59.531c-56.948-35.856-101.66-83.106-134.38-141.56zm235.39 0h212.97c-3.5676 21.946-13.564 41.142-30 57.578-21 21-46.484 31.484-76.484 31.484s-55.484-10.484-76.484-31.484c-16.436-16.436-26.432-35.633-30-57.578z"/></svg>
