<svg xmlns="http://www.w3.org/2000/svg" height="24px" viewBox="0 -960 960 960" width="24px" fill="#e8eaed"><path d="m300.47-510.94c-0.19246 3.6252-0.46875 7.2298-0.46875 10.938 0 50 17.5 92.5 52.5 127.5s77.5 52.5 127.5 52.5 92.5-17.5 127.5-52.5 52.5-77.5 52.5-127.5c0-3.7077-0.27629-7.3123-0.46875-10.938h-72.031c0.3235 3.5848 0.46875 7.214 0.46875 10.938 0 30-10.484 55.484-31.484 76.484-21 21-46.484 31.484-76.484 31.484s-55.484-10.484-76.484-31.484-31.484-46.484-31.484-76.484c0-3.7234 0.14525-7.3527 0.46875-10.938h-72.031z"/><path d="m557.89-662.89c-23.563-11.295 0 0 0 0z"/><path d="m659.53-510.94c-11.329-213.39 0 0 0 0z"/><path d="m480-800c-97.333 0-186.02 27.151-266.02 81.484-80 54.333-137.98 127.18-173.98 218.52 36 91.333 93.984 164.18 173.98 218.52 80 54.333 168.68 81.484 266.02 81.484s186.02-27.151 266.02-81.484c80-54.333 137.98-127.18 173.98-218.52-36-91.333-93.984-164.18-173.98-218.52-80-54.333-168.68-81.484-266.02-81.484zm0 80c73.702 0 141.46 19.142 203.36 57.109h0.15624v0.07812c1.3198 0.8103 2.67 1.5162 3.9844 2.3438 43.589 27.445 79.901 61.664 109.3 102.34h-633.59c29.396-40.68 65.708-74.899 109.3-102.34 63-39.667 132.17-59.531 207.5-59.531zm-341.88 238.91h683.75c-32.712 58.458-77.427 105.71-134.38 141.56-63 39.667-132.17 59.531-207.5 59.531s-144.5-19.865-207.5-59.531c-56.948-35.856-101.66-83.104-134.38-141.56z"/></svg>
