<?xml version="1.0" encoding="UTF-8" standalone="no"?>
<!-- Created with Inkscape (http://www.inkscape.org/) -->

<svg
   width="32"
   height="21"
   viewBox="0 0 8.4666667 5.5562499"
   version="1.1"
   id="svg1"
   inkscape:version="1.3.2 (091e20e, 2023-11-25)"
   sodipodi:docname="XR.svg"
   xmlns:inkscape="http://www.inkscape.org/namespaces/inkscape"
   xmlns:sodipodi="http://sodipodi.sourceforge.net/DTD/sodipodi-0.dtd"
   xmlns="http://www.w3.org/2000/svg"
   xmlns:svg="http://www.w3.org/2000/svg">
  <sodipodi:namedview
     id="namedview1"
     pagecolor="#ffffff"
     bordercolor="#666666"
     borderopacity="1.0"
     inkscape:showpageshadow="2"
     inkscape:pageopacity="0.0"
     inkscape:pagecheckerboard="0"
     inkscape:deskcolor="#d1d1d1"
     inkscape:document-units="mm"
     inkscape:zoom="26.875"
     inkscape:cx="16"
     inkscape:cy="10.288372"
     inkscape:window-width="1472"
     inkscape:window-height="838"
     inkscape:window-x="0"
     inkscape:window-y="38"
     inkscape:window-maximized="0"
     inkscape:current-layer="layer1" />
  <defs
     id="defs1" />
  <g
     inkscape:label="Ebene 1"
     inkscape:groupmode="layer"
     id="layer1"
     transform="translate(-149.225,-64.822917)">
    <path
       d="m 157.0869,65.394711 c -0.19844,-0.195497 -0.48192,-0.30721 -0.73706,-0.30721 h -5.89641 c -0.28347,0 -0.48191,0.111719 -0.68035,0.30721 -0.19843,0.16757 -0.28348,0.446851 -0.28348,0.698206 v 2.988322 c 0,0.279282 0.0851,0.530636 0.25513,0.726135 0.19844,0.195497 0.42523,0.30721 0.7087,0.30721 h 1.41741 c 0.19844,0 0.36853,-0.05586 0.51026,-0.139641 0.17009,-0.08379 0.28349,-0.223428 0.36853,-0.390995 l 0.42522,-0.726135 c 0.0567,-0.11172 0,-0.139641 0.28348,-0.139641 v 0 h -0.0567 v 0 c 0.0851,0 0.19844,0.02793 0.22679,0.139641 l 0.39687,0.726135 c 0.0851,0.167567 0.22678,0.30721 0.36853,0.390995 0.17009,0.08378 0.34018,0.139641 0.51026,0.139641 h 1.41741 c 0.28348,0 0.56697,-0.11172 0.7654,-0.30721 0.19844,-0.195499 0.34018,-0.446853 0.34018,-0.726135 v -2.988322 c 0,-0.251355 -0.14174,-0.530636 -0.34018,-0.698206 z m -5.49954,2.988322 c -0.45357,0 -0.79375,-0.363067 -0.79375,-0.781991 0,-0.446853 0.36853,-0.781991 0.79375,-0.781991 0.45357,0 0.79374,0.363067 0.79374,0.781991 0,0.418924 -0.36852,0.781991 -0.79374,0.781991 z m 3.60021,0 c -0.45357,0 -0.79374,-0.363067 -0.79374,-0.781991 0,-0.446853 0.36852,-0.781991 0.79374,-0.781991 0.45357,0 0.8221,0.335138 0.8221,0.781991 0,0.418924 -0.36853,0.781991 -0.8221,0.781991 z"
       id="path1"
       style="stroke-width:0.13229167;fill:#cdcdcd;fill-opacity:1;stroke:#000000;stroke-opacity:1;stroke-dasharray:none" />
  </g>
</svg>
