<svg xmlns="http://www.w3.org/2000/svg" xmlns:svg="http://www.w3.org/2000/svg" id="svg1" width="32" height="18" version="1.1" viewBox="0 0 8.467 4.762"><style>@keyframes fill{0%{fill:#ffe32d}50%{fill:#ff9f2e}}#path3{fill:red;animation:fill 12s alternate infinite linear}</style><g id="layer1" transform="translate(-149.225,-64.822917)"><path id="path3" style="fill:#cdcdcd;fill-opacity:1;stroke:#000;stroke-width:.132292;stroke-dasharray:none;stroke-opacity:1" d="m 151.60625,66.079688 c 0.55247,0 0.99218,0.447403 0.99218,0.984287 0,0.536884 -0.451,0.984287 -0.99218,0.984287 -0.5412,0 -0.99219,-0.447403 -0.99219,-0.984287 0,-0.536884 0.43972,-0.984287 0.99219,-0.984287 z m 3.70417,0 c 0.55246,0 0.99219,0.450994 0.99219,0.992188 0,0.541192 -0.45099,0.992187 -0.99219,0.992187 -0.54119,0 -0.99219,-0.450995 -0.99219,-0.992187 0,-0.541194 0.451,-0.992188 0.99219,-0.992188 z m -5.04141,3.307291 h 2.34814 l 0.53942,-0.96074 c 0.0635,-0.114871 0.17983,-0.177528 0.30676,-0.177528 0.12691,0 0.24326,0.06265 0.30673,0.177528 l 0.53943,0.96074 h 2.34813 c 0.46539,0 0.83717,-0.375945 0.8356,-0.824984 l -0.01,-2.715656 c -0.002,-0.459481 -0.38078,-0.824984 -0.83559,-0.824984 h -6.38861 c -0.46539,0 -0.83716,0.375945 -0.83559,0.824984 l 0.01,2.705215 c 0.002,0.45948 0.3702,0.835425 0.83558,0.835425 z"/></g></svg>