<?xml version="1.0" encoding="UTF-8" standalone="no"?>
<!-- Generated by Microsoft Visio, SVG Export cube_map.svg Page-2 -->

<svg
   width="6.007in"
   height="4.5050001in"
   viewBox="0 0 432.504 324.36031"
   xml:space="preserve"
   color-interpolation-filters="sRGB"
   class="st8"
   version="1.1"
   id="svg67"
   sodipodi:docname="SkyBox.svg"
   inkscape:version="1.3 (0e150ed, 2023-07-21)"
   xmlns:inkscape="http://www.inkscape.org/namespaces/inkscape"
   xmlns:sodipodi="http://sodipodi.sourceforge.net/DTD/sodipodi-0.dtd"
   xmlns:xlink="http://www.w3.org/1999/xlink"
   xmlns="http://www.w3.org/2000/svg"
   xmlns:svg="http://www.w3.org/2000/svg"><sodipodi:namedview
   id="namedview67"
   pagecolor="#ffffff"
   bordercolor="#666666"
   borderopacity="1.0"
   inkscape:showpageshadow="2"
   inkscape:pageopacity="0.0"
   inkscape:pagecheckerboard="0"
   inkscape:deskcolor="#d1d1d1"
   inkscape:document-units="in"
   inkscape:zoom="1.2115089"
   inkscape:cx="354.51659"
   inkscape:cy="219.97363"
   inkscape:window-width="1440"
   inkscape:window-height="796"
   inkscape:window-x="0"
   inkscape:window-y="25"
   inkscape:window-maximized="1"
   inkscape:current-layer="svg67" />&#10;	<style
   type="text/css"
   id="style1">&#10;	<![CDATA[
		.st1 {fill:#1ba1e2;stroke:#ffffff;stroke-linecap:round;stroke-linejoin:round;stroke-width:0.5}
		.st2 {fill:#ffffff;font-family:URW Geometric;font-size:0.833336em}
		.st3 {font-size:1em}
		.st4 {stroke:none;stroke-linecap:round;stroke-linejoin:round;stroke-width:0.75}
		.st5 {fill:#000000;font-family:URW Geometric;font-size:1.32285em}
		.st6 {marker-end:url(#mrkr4-39);stroke:#000000;stroke-linecap:round;stroke-linejoin:round;stroke-width:0.5}
		.st7 {fill:#000000;fill-opacity:1;stroke:#000000;stroke-opacity:1;stroke-width:0.16556291390728}
		.st8 {fill:none;fill-rule:evenodd;font-size:12px;overflow:visible;stroke-linecap:square;stroke-miterlimit:3}
	]]>&#10;	</style>&#10;&#10;	<defs
   id="defs1">&#10;		<g
   id="lend4">&#10;			<path
   d="M 2,1 0,0 2,-1 v 2"
   style="stroke:none"
   id="path1" />&#10;		</g>&#10;		<marker
   id="mrkr4-39"
   class="st7"
   refX="-12.08"
   orient="auto"
   markerUnits="strokeWidth"
   overflow="visible">&#10;			<use
   xlink:href="#lend4"
   transform="scale(-6.04)"
   id="use1" />&#10;		</marker>&#10;	</defs>&#10;	<g
   id="g67"
   transform="translate(-28.75,-18)">&#10;		<g
   transform="translate(29,-126.25)"
   id="g1">&#10;			<desc
   id="desc1">-X FACE 1</desc>&#10;			<rect
   x="0"
   y="252.5"
   width="108"
   height="108"
   class="st1"
   id="rect1" />&#10;			<text
   x="50.080002"
   y="303.5"
   class="st2"
   id="text1">-X<tspan
   x="40.279999"
   dy="1.2em"
   class="st3"
   id="tspan1">FACE 1</tspan></text>&#10;		</g>&#10;		<g
   transform="translate(137,-126.25)"
   id="g2">&#10;			<desc
   id="desc2">+Z FACE 4</desc>&#10;			<rect
   x="0"
   y="252.5"
   width="108"
   height="108"
   class="st1"
   id="rect2" />&#10;			<text
   x="48.68"
   y="303.5"
   class="st2"
   id="text2">+Z<tspan
   x="39.200001"
   dy="1.2em"
   class="st3"
   id="tspan2">FACE 4</tspan></text>&#10;		</g>&#10;		<g
   transform="translate(245,-126.25)"
   id="g3">&#10;			<desc
   id="desc3">+X FACE 0</desc>&#10;			<rect
   x="0"
   y="252.5"
   width="108"
   height="108"
   class="st1"
   id="rect3" />&#10;			<text
   x="48.57"
   y="303.5"
   class="st2"
   id="text3">+X<tspan
   x="38.93"
   dy="1.2em"
   class="st3"
   id="tspan3">FACE 0</tspan></text>&#10;		</g>&#10;		<g
   transform="translate(353,-126.25)"
   id="g4">&#10;			<desc
   id="desc4">-Z FACE 5</desc>&#10;			<rect
   x="0"
   y="252.5"
   width="108"
   height="108"
   class="st1"
   id="rect4" />&#10;			<text
   x="50.18"
   y="303.5"
   class="st2"
   id="text4">-Z<tspan
   x="39.18"
   dy="1.2em"
   class="st3"
   id="tspan4">FACE 5</tspan></text>&#10;		</g>&#10;		<g
   transform="translate(137,-234.25)"
   id="g5">&#10;			<desc
   id="desc5">+Y FACE 2</desc>&#10;			<rect
   x="0"
   y="252.5"
   width="108"
   height="108"
   class="st1"
   id="rect5" />&#10;			<text
   x="48.689999"
   y="303.5"
   class="st2"
   id="text5">+Y<tspan
   x="39.380001"
   dy="1.2em"
   class="st3"
   id="tspan5">FACE 2</tspan></text>&#10;		</g>&#10;		<g
   transform="translate(137,-18.25)"
   id="g6">&#10;			<desc
   id="desc6">-Y FACE 3</desc>&#10;			<rect
   x="0"
   y="252.5"
   width="108"
   height="108"
   class="st1"
   id="rect6" />&#10;			<text
   x="50.189999"
   y="303.5"
   class="st2"
   id="text6">-Y<tspan
   x="39.419998"
   dy="1.2em"
   class="st3"
   id="tspan6">FACE 3</tspan></text>&#10;		</g>&#10;		<g
   transform="translate(207.182,-83.5)"
   id="g11">&#10;			<g
   transform="translate(3.13148,-23.6974)"
   id="g7">&#10;				<desc
   id="desc7">v</desc>&#10;				<path
   d="M 12.62,341.45 H 0 v 19.05 h 12.62 v -19.05"
   class="st4"
   id="path7" />&#10;				<text
   x="2.27"
   y="355.73999"
   class="st5"
   id="text7">v</text>&#10;			</g>&#10;			<g
   transform="translate(25.1816,-1.19743)"
   id="g8">&#10;				<desc
   id="desc8">u</desc>&#10;				<path
   d="M 12.64,341.45 H 0 v 19.05 h 12.64 v -19.05"
   class="st4"
   id="path8" />&#10;				<text
   x="2.74"
   y="355.73999"
   class="st5"
   id="text8">u</text>&#10;			</g>&#10;			<g
   transform="translate(0,-9)"
   id="g9">&#10;				<path
   d="M 9,360.5 V 348.54"
   class="st6"
   id="path9" />&#10;			</g>&#10;			<g
   transform="translate(9)"
   id="g10">&#10;				<path
   d="M 0,351.5 H 11.96"
   class="st6"
   id="path10" />&#10;			</g>&#10;		</g>&#10;		<g
   transform="translate(423.182,-191.5)"
   id="g16">&#10;			<g
   transform="translate(3.13148,-23.6974)"
   id="g12">&#10;				<desc
   id="desc11">v</desc>&#10;				<path
   d="M 12.62,341.45 H 0 v 19.05 h 12.62 v -19.05"
   class="st4"
   id="path11" />&#10;				<text
   x="2.27"
   y="355.73999"
   class="st5"
   id="text11">v</text>&#10;			</g>&#10;			<g
   transform="translate(25.1816,-1.19743)"
   id="g13">&#10;				<desc
   id="desc12">u</desc>&#10;				<path
   d="M 12.64,341.45 H 0 v 19.05 h 12.64 v -19.05"
   class="st4"
   id="path12" />&#10;				<text
   x="2.74"
   y="355.73999"
   class="st5"
   id="text12">u</text>&#10;			</g>&#10;			<g
   transform="translate(0,-9)"
   id="g14">&#10;				<path
   d="M 9,360.5 V 348.54"
   class="st6"
   id="path13" />&#10;			</g>&#10;			<g
   transform="translate(9)"
   id="g15">&#10;				<path
   d="M 0,351.5 H 11.96"
   class="st6"
   id="path14" />&#10;			</g>&#10;		</g>&#10;		<g
   transform="translate(315.182,-191.5)"
   id="g21">&#10;			<g
   transform="translate(3.13148,-23.6974)"
   id="g17">&#10;				<desc
   id="desc16">v</desc>&#10;				<path
   d="M 12.62,341.45 H 0 v 19.05 h 12.62 v -19.05"
   class="st4"
   id="path16" />&#10;				<text
   x="2.27"
   y="355.73999"
   class="st5"
   id="text16">v</text>&#10;			</g>&#10;			<g
   transform="translate(25.1816,-1.19743)"
   id="g18">&#10;				<desc
   id="desc17">u</desc>&#10;				<path
   d="M 12.64,341.45 H 0 v 19.05 h 12.64 v -19.05"
   class="st4"
   id="path17" />&#10;				<text
   x="2.74"
   y="355.73999"
   class="st5"
   id="text17">u</text>&#10;			</g>&#10;			<g
   transform="translate(0,-9)"
   id="g19">&#10;				<path
   d="M 9,360.5 V 348.54"
   class="st6"
   id="path18" />&#10;			</g>&#10;			<g
   transform="translate(9)"
   id="g20">&#10;				<path
   d="M 0,351.5 H 11.96"
   class="st6"
   id="path19" />&#10;			</g>&#10;		</g>&#10;		<g
   transform="translate(207.182,-191.5)"
   id="g26">&#10;			<g
   transform="translate(3.13148,-23.6974)"
   id="g22">&#10;				<desc
   id="desc21">v</desc>&#10;				<path
   d="M 12.62,341.45 H 0 v 19.05 h 12.62 v -19.05"
   class="st4"
   id="path21" />&#10;				<text
   x="2.27"
   y="355.73999"
   class="st5"
   id="text21">v</text>&#10;			</g>&#10;			<g
   transform="translate(25.1816,-1.19743)"
   id="g23">&#10;				<desc
   id="desc22">u</desc>&#10;				<path
   d="M 12.64,341.45 H 0 v 19.05 h 12.64 v -19.05"
   class="st4"
   id="path22" />&#10;				<text
   x="2.74"
   y="355.73999"
   class="st5"
   id="text22">u</text>&#10;			</g>&#10;			<g
   transform="translate(0,-9)"
   id="g24">&#10;				<path
   d="M 9,360.5 V 348.54"
   class="st6"
   id="path23" />&#10;			</g>&#10;			<g
   transform="translate(9)"
   id="g25">&#10;				<path
   d="M 0,351.5 H 11.96"
   class="st6"
   id="path24" />&#10;			</g>&#10;		</g>&#10;		<g
   transform="translate(207.182,-299.5)"
   id="g31">&#10;			<g
   transform="translate(3.13148,-23.6974)"
   id="g27">&#10;				<desc
   id="desc26">v</desc>&#10;				<path
   d="M 12.62,341.45 H 0 v 19.05 h 12.62 v -19.05"
   class="st4"
   id="path26" />&#10;				<text
   x="2.27"
   y="355.73999"
   class="st5"
   id="text26">v</text>&#10;			</g>&#10;			<g
   transform="translate(25.1816,-1.19743)"
   id="g28">&#10;				<desc
   id="desc27">u</desc>&#10;				<path
   d="M 12.64,341.45 H 0 v 19.05 h 12.64 v -19.05"
   class="st4"
   id="path27" />&#10;				<text
   x="2.74"
   y="355.73999"
   class="st5"
   id="text27">u</text>&#10;			</g>&#10;			<g
   transform="translate(0,-9)"
   id="g29">&#10;				<path
   d="M 9,360.5 V 348.54"
   class="st6"
   id="path28" />&#10;			</g>&#10;			<g
   transform="translate(9)"
   id="g30">&#10;				<path
   d="M 0,351.5 H 11.96"
   class="st6"
   id="path29" />&#10;			</g>&#10;		</g>&#10;		<g
   transform="translate(99.1816,-191.5)"
   id="g36">&#10;			<g
   transform="translate(3.13148,-23.6974)"
   id="g32">&#10;				<desc
   id="desc31">v</desc>&#10;				<path
   d="M 12.62,341.45 H 0 v 19.05 h 12.62 v -19.05"
   class="st4"
   id="path31" />&#10;				<text
   x="2.27"
   y="355.73999"
   class="st5"
   id="text31">v</text>&#10;			</g>&#10;			<g
   transform="translate(25.1816,-1.19743)"
   id="g33">&#10;				<desc
   id="desc32">u</desc>&#10;				<path
   d="M 12.64,341.45 H 0 v 19.05 h 12.64 v -19.05"
   class="st4"
   id="path32" />&#10;				<text
   x="2.74"
   y="355.73999"
   class="st5"
   id="text32">u</text>&#10;			</g>&#10;			<g
   transform="translate(0,-9)"
   id="g34">&#10;				<path
   d="M 9,360.5 V 348.54"
   class="st6"
   id="path33" />&#10;			</g>&#10;			<g
   transform="translate(9)"
   id="g35">&#10;				<path
   d="M 0,351.5 H 11.96"
   class="st6"
   id="path34" />&#10;			</g>&#10;		</g>&#10;		<g
   transform="translate(29,-126.25)"
   id="g41">&#10;			<g
   transform="translate(3.13148,-27)"
   id="g37">&#10;				<desc
   id="desc36">y</desc>&#10;				<path
   d="M 12.62,341.45 H 0 v 19.05 h 12.62 v -19.05"
   class="st4"
   id="path36" />&#10;				<text
   x="2.8099999"
   y="355.73999"
   class="st5"
   id="text36">y</text>&#10;			</g>&#10;			<g
   transform="translate(25.1816,-1.19743)"
   id="g38">&#10;				<desc
   id="desc37">z</desc>&#10;				<path
   d="M 12.64,341.45 H 0 v 19.05 h 12.64 v -19.05"
   class="st4"
   id="path37" />&#10;				<text
   x="2.99"
   y="355.73999"
   class="st5"
   id="text37">z</text>&#10;			</g>&#10;			<g
   transform="translate(0,-9)"
   id="g39">&#10;				<path
   d="M 9,360.5 V 348.54"
   class="st6"
   id="path38" />&#10;			</g>&#10;			<g
   transform="translate(9)"
   id="g40">&#10;				<path
   d="M 0,351.5 H 11.96"
   class="st6"
   id="path39" />&#10;			</g>&#10;		</g>&#10;		<g
   transform="translate(137,-126.25)"
   id="g46">&#10;			<g
   transform="translate(3.13148,-27)"
   id="g42">&#10;				<desc
   id="desc41">y</desc>&#10;				<path
   d="M 12.62,341.45 H 0 v 19.05 h 12.62 v -19.05"
   class="st4"
   id="path41" />&#10;				<text
   x="2.8099999"
   y="355.73999"
   class="st5"
   id="text41">y</text>&#10;			</g>&#10;			<g
   transform="translate(25.1816,-1.19743)"
   id="g43">&#10;				<desc
   id="desc42">x</desc>&#10;				<path
   d="M 12.64,341.45 H 0 v 19.05 h 12.64 v -19.05"
   class="st4"
   id="path42" />&#10;				<text
   x="2.8099999"
   y="355.73999"
   class="st5"
   id="text42">x</text>&#10;			</g>&#10;			<g
   transform="translate(0,-9)"
   id="g44">&#10;				<path
   d="M 9,360.5 V 348.54"
   class="st6"
   id="path43" />&#10;			</g>&#10;			<g
   transform="translate(9)"
   id="g45">&#10;				<path
   d="M 0,351.5 H 11.96"
   class="st6"
   id="path44" />&#10;			</g>&#10;		</g>&#10;		<g
   transform="translate(245,-126.25)"
   id="g51">&#10;			<g
   transform="translate(3.13148,-27)"
   id="g47">&#10;				<desc
   id="desc46">y</desc>&#10;				<path
   d="M 12.62,341.45 H 0 v 19.05 h 12.62 v -19.05"
   class="st4"
   id="path46" />&#10;				<text
   x="2.8099999"
   y="355.73999"
   class="st5"
   id="text46">y</text>&#10;			</g>&#10;			<g
   transform="translate(27,-1.19743)"
   id="g48">&#10;				<desc
   id="desc47">-z</desc>&#10;				<path
   d="M 12.64,341.45 H 0 v 19.05 h 12.64 v -19.05"
   class="st4"
   id="path47" />&#10;				<text
   x="0.97000003"
   y="355.73999"
   class="st5"
   id="text47">-z</text>&#10;			</g>&#10;			<g
   transform="translate(0,-9)"
   id="g49">&#10;				<path
   d="M 9,360.5 V 348.54"
   class="st6"
   id="path48" />&#10;			</g>&#10;			<g
   transform="translate(9)"
   id="g50">&#10;				<path
   d="M 0,351.5 H 11.96"
   class="st6"
   id="path49" />&#10;			</g>&#10;		</g>&#10;		<g
   transform="translate(355.682,-126.25)"
   id="g56">&#10;			<g
   transform="translate(3.13148,-27)"
   id="g52">&#10;				<desc
   id="desc51">y</desc>&#10;				<path
   d="M 12.62,341.45 H 0 v 19.05 h 12.62 v -19.05"
   class="st4"
   id="path51" />&#10;				<text
   x="2.8099999"
   y="355.73999"
   class="st5"
   id="text51">y</text>&#10;			</g>&#10;			<g
   transform="translate(27,-1.19743)"
   id="g53">&#10;				<desc
   id="desc52">-x</desc>&#10;				<path
   d="M 12.64,341.45 H 0 v 19.05 h 12.64 v -19.05"
   class="st4"
   id="path52" />&#10;				<text
   x="0.79000002"
   y="355.73999"
   class="st5"
   id="text52">-x</text>&#10;			</g>&#10;			<g
   transform="translate(0,-9)"
   id="g54">&#10;				<path
   d="M 9,360.5 V 348.54"
   class="st6"
   id="path53" />&#10;			</g>&#10;			<g
   transform="translate(9)"
   id="g55">&#10;				<path
   d="M 0,351.5 H 11.96"
   class="st6"
   id="path54" />&#10;			</g>&#10;		</g>&#10;		<g
   transform="translate(137,-18.25)"
   id="g61">&#10;			<g
   transform="translate(3.13148,-27)"
   id="g57">&#10;				<desc
   id="desc56">z</desc>&#10;				<path
   d="M 12.62,341.45 H 0 v 19.05 h 12.62 v -19.05"
   class="st4"
   id="path56" />&#10;				<text
   x="2.98"
   y="355.73999"
   class="st5"
   id="text56">z</text>&#10;			</g>&#10;			<g
   transform="translate(25.1816,-1.19743)"
   id="g58">&#10;				<desc
   id="desc57">x</desc>&#10;				<path
   d="M 12.64,341.45 H 0 v 19.05 h 12.64 v -19.05"
   class="st4"
   id="path57" />&#10;				<text
   x="2.8099999"
   y="355.73999"
   class="st5"
   id="text57">x</text>&#10;			</g>&#10;			<g
   transform="translate(0,-9)"
   id="g59">&#10;				<path
   d="M 9,360.5 V 348.54"
   class="st6"
   id="path58" />&#10;			</g>&#10;			<g
   transform="translate(9)"
   id="g60">&#10;				<path
   d="M 0,351.5 H 11.96"
   class="st6"
   id="path59" />&#10;			</g>&#10;		</g>&#10;		<g
   transform="translate(137,-234.25)"
   id="g66">&#10;			<g
   transform="translate(3.13148,-27)"
   id="g62">&#10;				<desc
   id="desc61">-z</desc>&#10;				<path
   d="M 12.62,341.45 H 0 v 19.05 h 12.62 v -19.05"
   class="st4"
   id="path61" />&#10;				<text
   x="0.95999998"
   y="355.73999"
   class="st5"
   id="text61">-z</text>&#10;			</g>&#10;			<g
   transform="translate(25.1816,-1.19743)"
   id="g63">&#10;				<desc
   id="desc62">x</desc>&#10;				<path
   d="M 12.64,341.45 H 0 v 19.05 h 12.64 v -19.05"
   class="st4"
   id="path62" />&#10;				<text
   x="2.8099999"
   y="355.73999"
   class="st5"
   id="text62">x</text>&#10;			</g>&#10;			<g
   transform="translate(0,-9)"
   id="g64">&#10;				<path
   d="M 9,360.5 V 348.54"
   class="st6"
   id="path63" />&#10;			</g>&#10;			<g
   transform="translate(9)"
   id="g65">&#10;				<path
   d="M 0,351.5 H 11.96"
   class="st6"
   id="path64" />&#10;			</g>&#10;		</g>&#10;	</g>&#10;</svg>
