<svg xmlns="http://www.w3.org/2000/svg" xmlns:svg="http://www.w3.org/2000/svg" xmlns:xlink="http://www.w3.org/1999/xlink" id="svg67" width="6.007in" height="432.48" class="st8" color-interpolation-filters="sRGB" version="1.1" viewBox="0 0 432.504 324.36" xml:space="preserve"><style id="style1" type="text/css">.st1{fill:#1ba1e2;stroke:#fff;stroke-linecap:round;stroke-linejoin:round;stroke-width:.5}.st2{fill:#fff;font-family:URW Geometric;font-size:.833336em}.st3{font-size:1em}.st4{stroke:none;stroke-linecap:round;stroke-linejoin:round;stroke-width:.75}.st5{fill:#000;font-family:URW Geometric;font-size:1.32285em}.st6,.st7{stroke:#000}.st6{marker-end:url(#mrkr4-39);stroke-linecap:round;stroke-linejoin:round;stroke-width:.5}.st7{fill:#000;fill-opacity:1;stroke-opacity:1;stroke-width:.16556291390728}.st8{fill:none;fill-rule:evenodd;font-size:12px;overflow:visible;stroke-linecap:square;stroke-miterlimit:3}</style><defs id="defs1"><g id="lend4"><path style="stroke:none" id="path1" d="M 2,1 0,0 2,-1 v 2"/></g><marker id="mrkr4-39" class="st7" markerUnits="strokeWidth" orient="auto" overflow="visible" refX="-12.08"><use id="use1" transform="scale(-6.04)" xlink:href="#lend4"/></marker></defs><g id="g67" transform="translate(-28.75,-18)"><g id="g1" transform="translate(29,-126.25)"><desc id="desc1">-X FACE 1</desc><rect id="rect1" width="108" height="108" x="0" y="252.5" class="st1"/><text id="text1" x="50.08" y="303.5" class="st2">-X<tspan id="tspan1" x="40.28" class="st3" dy="1.2em">FACE 1</tspan></text></g><g id="g2" transform="translate(137,-126.25)"><desc id="desc2">+Z FACE 4</desc><rect id="rect2" width="108" height="108" x="0" y="252.5" class="st1"/><text id="text2" x="48.68" y="303.5" class="st2">+Z<tspan id="tspan2" x="39.2" class="st3" dy="1.2em">FACE 4</tspan></text></g><g id="g3" transform="translate(245,-126.25)"><desc id="desc3">+X FACE 0</desc><rect id="rect3" width="108" height="108" x="0" y="252.5" class="st1"/><text id="text3" x="48.57" y="303.5" class="st2">+X<tspan id="tspan3" x="38.93" class="st3" dy="1.2em">FACE 0</tspan></text></g><g id="g4" transform="translate(353,-126.25)"><desc id="desc4">-Z FACE 5</desc><rect id="rect4" width="108" height="108" x="0" y="252.5" class="st1"/><text id="text4" x="50.18" y="303.5" class="st2">-Z<tspan id="tspan4" x="39.18" class="st3" dy="1.2em">FACE 5</tspan></text></g><g id="g5" transform="translate(137,-234.25)"><desc id="desc5">+Y FACE 2</desc><rect id="rect5" width="108" height="108" x="0" y="252.5" class="st1"/><text id="text5" x="48.69" y="303.5" class="st2">+Y<tspan id="tspan5" x="39.38" class="st3" dy="1.2em">FACE 2</tspan></text></g><g id="g6" transform="translate(137,-18.25)"><desc id="desc6">-Y FACE 3</desc><rect id="rect6" width="108" height="108" x="0" y="252.5" class="st1"/><text id="text6" x="50.19" y="303.5" class="st2">-Y<tspan id="tspan6" x="39.42" class="st3" dy="1.2em">FACE 3</tspan></text></g><g id="g11" transform="translate(207.182,-83.5)"><g id="g7" transform="translate(3.13148,-23.6974)"><desc id="desc7">v</desc><path id="path7" d="M 12.62,341.45 H 0 v 19.05 h 12.62 v -19.05" class="st4"/><text id="text7" x="2.27" y="355.74" class="st5">v</text></g><g id="g8" transform="translate(25.1816,-1.19743)"><desc id="desc8">u</desc><path id="path8" d="M 12.64,341.45 H 0 v 19.05 h 12.64 v -19.05" class="st4"/><text id="text8" x="2.74" y="355.74" class="st5">u</text></g><g id="g9" transform="translate(0,-9)"><path id="path9" d="M 9,360.5 V 348.54" class="st6"/></g><g id="g10" transform="translate(9)"><path id="path10" d="M 0,351.5 H 11.96" class="st6"/></g></g><g id="g16" transform="translate(423.182,-191.5)"><g id="g12" transform="translate(3.13148,-23.6974)"><desc id="desc11">v</desc><path id="path11" d="M 12.62,341.45 H 0 v 19.05 h 12.62 v -19.05" class="st4"/><text id="text11" x="2.27" y="355.74" class="st5">v</text></g><g id="g13" transform="translate(25.1816,-1.19743)"><desc id="desc12">u</desc><path id="path12" d="M 12.64,341.45 H 0 v 19.05 h 12.64 v -19.05" class="st4"/><text id="text12" x="2.74" y="355.74" class="st5">u</text></g><g id="g14" transform="translate(0,-9)"><path id="path13" d="M 9,360.5 V 348.54" class="st6"/></g><g id="g15" transform="translate(9)"><path id="path14" d="M 0,351.5 H 11.96" class="st6"/></g></g><g id="g21" transform="translate(315.182,-191.5)"><g id="g17" transform="translate(3.13148,-23.6974)"><desc id="desc16">v</desc><path id="path16" d="M 12.62,341.45 H 0 v 19.05 h 12.62 v -19.05" class="st4"/><text id="text16" x="2.27" y="355.74" class="st5">v</text></g><g id="g18" transform="translate(25.1816,-1.19743)"><desc id="desc17">u</desc><path id="path17" d="M 12.64,341.45 H 0 v 19.05 h 12.64 v -19.05" class="st4"/><text id="text17" x="2.74" y="355.74" class="st5">u</text></g><g id="g19" transform="translate(0,-9)"><path id="path18" d="M 9,360.5 V 348.54" class="st6"/></g><g id="g20" transform="translate(9)"><path id="path19" d="M 0,351.5 H 11.96" class="st6"/></g></g><g id="g26" transform="translate(207.182,-191.5)"><g id="g22" transform="translate(3.13148,-23.6974)"><desc id="desc21">v</desc><path id="path21" d="M 12.62,341.45 H 0 v 19.05 h 12.62 v -19.05" class="st4"/><text id="text21" x="2.27" y="355.74" class="st5">v</text></g><g id="g23" transform="translate(25.1816,-1.19743)"><desc id="desc22">u</desc><path id="path22" d="M 12.64,341.45 H 0 v 19.05 h 12.64 v -19.05" class="st4"/><text id="text22" x="2.74" y="355.74" class="st5">u</text></g><g id="g24" transform="translate(0,-9)"><path id="path23" d="M 9,360.5 V 348.54" class="st6"/></g><g id="g25" transform="translate(9)"><path id="path24" d="M 0,351.5 H 11.96" class="st6"/></g></g><g id="g31" transform="translate(207.182,-299.5)"><g id="g27" transform="translate(3.13148,-23.6974)"><desc id="desc26">v</desc><path id="path26" d="M 12.62,341.45 H 0 v 19.05 h 12.62 v -19.05" class="st4"/><text id="text26" x="2.27" y="355.74" class="st5">v</text></g><g id="g28" transform="translate(25.1816,-1.19743)"><desc id="desc27">u</desc><path id="path27" d="M 12.64,341.45 H 0 v 19.05 h 12.64 v -19.05" class="st4"/><text id="text27" x="2.74" y="355.74" class="st5">u</text></g><g id="g29" transform="translate(0,-9)"><path id="path28" d="M 9,360.5 V 348.54" class="st6"/></g><g id="g30" transform="translate(9)"><path id="path29" d="M 0,351.5 H 11.96" class="st6"/></g></g><g id="g36" transform="translate(99.1816,-191.5)"><g id="g32" transform="translate(3.13148,-23.6974)"><desc id="desc31">v</desc><path id="path31" d="M 12.62,341.45 H 0 v 19.05 h 12.62 v -19.05" class="st4"/><text id="text31" x="2.27" y="355.74" class="st5">v</text></g><g id="g33" transform="translate(25.1816,-1.19743)"><desc id="desc32">u</desc><path id="path32" d="M 12.64,341.45 H 0 v 19.05 h 12.64 v -19.05" class="st4"/><text id="text32" x="2.74" y="355.74" class="st5">u</text></g><g id="g34" transform="translate(0,-9)"><path id="path33" d="M 9,360.5 V 348.54" class="st6"/></g><g id="g35" transform="translate(9)"><path id="path34" d="M 0,351.5 H 11.96" class="st6"/></g></g><g id="g41" transform="translate(29,-126.25)"><g id="g37" transform="translate(3.13148,-27)"><desc id="desc36">y</desc><path id="path36" d="M 12.62,341.45 H 0 v 19.05 h 12.62 v -19.05" class="st4"/><text id="text36" x="2.81" y="355.74" class="st5">y</text></g><g id="g38" transform="translate(25.1816,-1.19743)"><desc id="desc37">z</desc><path id="path37" d="M 12.64,341.45 H 0 v 19.05 h 12.64 v -19.05" class="st4"/><text id="text37" x="2.99" y="355.74" class="st5">z</text></g><g id="g39" transform="translate(0,-9)"><path id="path38" d="M 9,360.5 V 348.54" class="st6"/></g><g id="g40" transform="translate(9)"><path id="path39" d="M 0,351.5 H 11.96" class="st6"/></g></g><g id="g46" transform="translate(137,-126.25)"><g id="g42" transform="translate(3.13148,-27)"><desc id="desc41">y</desc><path id="path41" d="M 12.62,341.45 H 0 v 19.05 h 12.62 v -19.05" class="st4"/><text id="text41" x="2.81" y="355.74" class="st5">y</text></g><g id="g43" transform="translate(25.1816,-1.19743)"><desc id="desc42">x</desc><path id="path42" d="M 12.64,341.45 H 0 v 19.05 h 12.64 v -19.05" class="st4"/><text id="text42" x="2.81" y="355.74" class="st5">x</text></g><g id="g44" transform="translate(0,-9)"><path id="path43" d="M 9,360.5 V 348.54" class="st6"/></g><g id="g45" transform="translate(9)"><path id="path44" d="M 0,351.5 H 11.96" class="st6"/></g></g><g id="g51" transform="translate(245,-126.25)"><g id="g47" transform="translate(3.13148,-27)"><desc id="desc46">y</desc><path id="path46" d="M 12.62,341.45 H 0 v 19.05 h 12.62 v -19.05" class="st4"/><text id="text46" x="2.81" y="355.74" class="st5">y</text></g><g id="g48" transform="translate(27,-1.19743)"><desc id="desc47">-z</desc><path id="path47" d="M 12.64,341.45 H 0 v 19.05 h 12.64 v -19.05" class="st4"/><text id="text47" x=".97" y="355.74" class="st5">-z</text></g><g id="g49" transform="translate(0,-9)"><path id="path48" d="M 9,360.5 V 348.54" class="st6"/></g><g id="g50" transform="translate(9)"><path id="path49" d="M 0,351.5 H 11.96" class="st6"/></g></g><g id="g56" transform="translate(355.682,-126.25)"><g id="g52" transform="translate(3.13148,-27)"><desc id="desc51">y</desc><path id="path51" d="M 12.62,341.45 H 0 v 19.05 h 12.62 v -19.05" class="st4"/><text id="text51" x="2.81" y="355.74" class="st5">y</text></g><g id="g53" transform="translate(27,-1.19743)"><desc id="desc52">-x</desc><path id="path52" d="M 12.64,341.45 H 0 v 19.05 h 12.64 v -19.05" class="st4"/><text id="text52" x=".79" y="355.74" class="st5">-x</text></g><g id="g54" transform="translate(0,-9)"><path id="path53" d="M 9,360.5 V 348.54" class="st6"/></g><g id="g55" transform="translate(9)"><path id="path54" d="M 0,351.5 H 11.96" class="st6"/></g></g><g id="g61" transform="translate(137,-18.25)"><g id="g57" transform="translate(3.13148,-27)"><desc id="desc56">z</desc><path id="path56" d="M 12.62,341.45 H 0 v 19.05 h 12.62 v -19.05" class="st4"/><text id="text56" x="2.98" y="355.74" class="st5">z</text></g><g id="g58" transform="translate(25.1816,-1.19743)"><desc id="desc57">x</desc><path id="path57" d="M 12.64,341.45 H 0 v 19.05 h 12.64 v -19.05" class="st4"/><text id="text57" x="2.81" y="355.74" class="st5">x</text></g><g id="g59" transform="translate(0,-9)"><path id="path58" d="M 9,360.5 V 348.54" class="st6"/></g><g id="g60" transform="translate(9)"><path id="path59" d="M 0,351.5 H 11.96" class="st6"/></g></g><g id="g66" transform="translate(137,-234.25)"><g id="g62" transform="translate(3.13148,-27)"><desc id="desc61">-z</desc><path id="path61" d="M 12.62,341.45 H 0 v 19.05 h 12.62 v -19.05" class="st4"/><text id="text61" x=".96" y="355.74" class="st5">-z</text></g><g id="g63" transform="translate(25.1816,-1.19743)"><desc id="desc62">x</desc><path id="path62" d="M 12.64,341.45 H 0 v 19.05 h 12.64 v -19.05" class="st4"/><text id="text62" x="2.81" y="355.74" class="st5">x</text></g><g id="g64" transform="translate(0,-9)"><path id="path63" d="M 9,360.5 V 348.54" class="st6"/></g><g id="g65" transform="translate(9)"><path id="path64" d="M 0,351.5 H 11.96" class="st6"/></g></g></g></svg>